<svg xmlns="http://www.w3.org/2000/svg" viewBox="0 0 64 64">
  <defs>
    <path id="knob-squished-ball" d="M 0 0 h 2 a 1 3 0 0 0 0 -6 h -2 a 1 3 0 0 0 0 6 z" />
    <path id="knob-0-dash" d="M 0 0 h 1 c 3 0 3 4 0 4 h -1 c -3 0 -3 -4 0 -4 z" />
    <path id="knob-1-dash" d="M 0 0 h 4 c 3 0 3 4 0 4 h -4 c -3 0 -3 -4 0 -4 z" />
    <path id="knob-3-dash" d="M 0 0 h 12 c 3 0 3 4 0 4 h -12 c -3 0 -3 -4 0 -4 z" />
    <path id="knob-4-dash" d="M 0 0 h 18 c 3 0 3 4 0 4 h -18 c -3 0 -3 -4 0 -4 z" />
    <path id="knob-5-dash" d="M 0 0 h 20 c 3 0 3 4 0 4 h -20 c -3 0 -3 -4 0 -4 z" />

    <path id="das-nood"
      d="M 0 0 c 0 1 1 1 1 0 c 0 -1 -0.5 -1 -0.5 -2 c 0 -1 0.5 -1 0.5 -2 c 0 -1 -0.5 -1 -0.5 -2 c 0 -1 0.5 -1 0.5 -2 c 0 0 0 0 0 0 c 0 -1 -0.5 -1 -0.5 -2 c 0 -1 -1 -1 -1 0 c 0 1 0.5 1 0.5 2 c 0 1 -0.5 1 -0.5 2 c 0 1 0.5 1 0.5 2 c 0 1 -0.5 1 -0.5 2 c 0 1 0.5 1 0.5 2 z" />
  </defs>

  <g id="total-logo" transform="scale(1.18) translate(0, 7)">
    <g id="knob-row-2" transform="translate(0,12)" style="fill:var(--nood-duotone-primary, #69341e)">
      <use href="#knob-1-dash" transform="translate(4)" />
      <use href="#knob-squished-ball" transform="translate(14,5)" />
      <use href="#knob-4-dash" transform="translate(22)" />
      <use href="#knob-0-dash" transform="translate(49)" />
    </g>

    <g id="knob-row-3" transform="translate(0,22)" style="fill:var(--nood-duotone-primary, #69341e)">
      <use href="#knob-3-dash" transform="translate(4)" />
      <use href="#knob-squished-ball" transform="translate(22,5)" />
      <use href="#knob-1-dash" transform="translate(30)" />
    </g>

    <g id="knob-row-4" transform="translate(0,32)" style="fill:var(--nood-duotone-primary, #69341e)">
      <use href="#knob-1-dash" transform="translate(4)" />
      <use href="#knob-squished-ball" transform="translate(14,5)" />
      <use href="#knob-3-dash" transform="translate(22)" />
    </g>

    <g id="the-noodles" transform="translate(34,34) scale(3)" style="fill:var(--nood-duotone-secondary, #e3bd66)">
      <use href="#das-nood" transform="translate(2,1)" />
      <use href="#das-nood" transform="translate(4,1)" />
    </g>

    <g id="knob-row-1" transform="translate(0,2)" style="fill:var(--nood-duotone-primary, #69341e)">
      <use href="#knob-3-dash" transform="translate(4)" />
      <use href="#knob-squished-ball" transform="translate(22,5)" />
      <use href="#knob-5-dash" transform="translate(30)" />
    </g>
  </g>
</svg>