<?xml version="1.0" encoding="utf-8"?>
<!-- Uploaded to: SVG Repo, www.svgrepo.com, Generator: SVG Repo Mixer Tools -->
<svg fill="#000000" width="800px" height="800px" viewBox="0 0 24 24" id="noodle" data-name="Flat Color"
  xmlns="http://www.w3.org/2000/svg" class="icon flat-color">
  <path id="primary" d="M21,10H19a1,1,0,0,1,0-2h2a1,1,0,0,1,0,2Zm-7,0H3A1,1,0,0,1,3,8H14a1,1,0,0,1,0,2Z"
    style="fill: rgb(0, 0, 0);"></path>
  <path id="secondary"
    d="M17.52,20h-.09a1,1,0,0,1-.91-1.09,4.18,4.18,0,0,1,.61-1.81,2.5,2.5,0,0,0,0-2.62,4.21,4.21,0,0,1-.63-2.29,4.2,4.2,0,0,1,.63-2.28A2.26,2.26,0,0,0,17.5,8.6a2.26,2.26,0,0,0-.37-1.31A4.21,4.21,0,0,1,16.5,5a1,1,0,0,1,2,0,2.26,2.26,0,0,0,.37,1.31A4.21,4.21,0,0,1,19.5,8.6a4.18,4.18,0,0,1-.63,2.29,2.25,2.25,0,0,0-.37,1.3,2.26,2.26,0,0,0,.37,1.31,4.21,4.21,0,0,1,.63,2.29,4.31,4.31,0,0,1-.62,2.29,2.11,2.11,0,0,0-.36,1A1,1,0,0,1,17.52,20Zm-3-.91a2.11,2.11,0,0,1,.36-1,4.31,4.31,0,0,0,.62-2.29,4.21,4.21,0,0,0-.63-2.29,2.26,2.26,0,0,1-.37-1.31,2.25,2.25,0,0,1,.37-1.3A4.18,4.18,0,0,0,15.5,8.6a4.21,4.21,0,0,0-.63-2.29A2.26,2.26,0,0,1,14.5,5a1,1,0,0,0-2,0,4.21,4.21,0,0,0,.63,2.29A2.26,2.26,0,0,1,13.5,8.6a2.26,2.26,0,0,1-.37,1.31,4.2,4.2,0,0,0-.63,2.28,4.21,4.21,0,0,0,.63,2.29,2.5,2.5,0,0,1,0,2.62,4.18,4.18,0,0,0-.61,1.81A1,1,0,0,0,13.43,20h.09A1,1,0,0,0,14.52,19.09Z"
    style="fill: rgb(44, 169, 188);"></path>
  <path id="primary-2" data-name="primary" d="M21,6H3A1,1,0,0,1,3,4H21a1,1,0,0,1,0,2Z" style="fill: rgb(0, 0, 0);">
  </path>
</svg>