<svg xmlns="http://www.w3.org/2000/svg" viewBox="0 0 64 32">
  <style lang="css">
    g#knob-row-1,
    g#knob-row-2,
    g#knob-row-3 {
      fill: var(--nood-duotone-primary, #69341e);
    }

    g#the-noodles {
      fill: var(--nood-duotone-secondary, #e3bd66);
    }
  </style>

  <defs>
    <circle id="knob-ball" cx="4" cy="4" r="4" />
    <path id="knob-squished-ball" d="M 0 0 h 3 a 1 2 0 0 0 0 -6 h -3 a 1 2 0 0 0 0 6 z" />
    <path id="knob-0-dash" d="M 0 0 h 2 c 3 0 3 4 0 4 h -2 c -3 0 -3 -4 0 -4 z" />
    <path id="knob-1-dash" d="M 0 0 h 4 c 3 0 3 4 0 4 h -4 c -3 0 -3 -4 0 -4 z" />
    <path id="knob-2-dash" d="M 0 0 h 6 c 3 0 3 4 0 4 h -6 c -3 0 -3 -4 0 -4 z" />
    <path id="knob-3-dash" d="M 0 0 h 12 c 3 0 3 4 0 4 h -12 c -3 0 -3 -4 0 -4 z" />
    <path id="knob-4-dash" d="M 0 0 h 16 c 3 0 3 4 0 4 h -16 c -3 0 -3 -4 0 -4 z" />
    <path id="knob-5-dash" d="M 0 0 h 22 c 3 0 3 4 0 4 h -22 c -3 0 -3 -4 0 -4 z" />

    <path id="a-noodle" transform="scale(-3.5, 3.5)"
      d="M 0 0 c 0 1 1 1 1 0 c 0 -1 -0.5 -1 -0.5 -2 c 0 -1 0.5 -1 0.5 -2 c 0 0 0 0 0 0 c 0 -1 -0.5 -1 -0.5 -2 c 0 -1 -1 -1 -1 0 c 0 1 0.5 1 0.5 2 c 0 1 -0.5 1 -0.5 2 c 0 1 0.5 1 0.5 2 z" />
  </defs>

  <g id="total-logo">
    <!-- Place the 'back-most' items first. -->
    <!-- Second row -->
    <g id="knob-row-2" transform="translate(0,12)">
      <use href="#knob-1-dash" transform="translate(8)" />
      <use href="#knob-squished-ball" transform="translate(18,5)" />
      <use href="#knob-4-dash" transform="translate(28)" />
      <use href="#knob-0-dash" transform="translate(55)" />
    </g>

    <!-- Third Row -->
    <g id="knob-row-3" transform="translate(0,20)">
      <use href="#knob-3-dash" transform="translate(8)" />
      <use href="#knob-squished-ball" transform="translate(26,5)" />
      <use href="#knob-2-dash" transform="translate(35)" />
    </g>

    <!-- Place the noodles overtop of them -->
    <g id="the-noodles">
      <use href="#a-noodle" transform="translate(48,28)" />
      <use href="#a-noodle" transform="translate(55,28)" />
    </g>

    <!-- Place the top row over the noodles too -->
    <!-- First Row -->
    <g id="knob-row-1" transform="translate(0,4)">
      <use href="#knob-3-dash" transform="translate(8)" />
      <use href="#knob-squished-ball" transform="translate(26,5)" />
      <use href="#knob-5-dash" transform="translate(35)" />
    </g>

  </g>
</svg>